{"title":"[ShepardTDS] Air Dual Audio [720p 8-bit x265 HEVC] 1-13+Specials","uid":13957497,"size":3100140584,"categoryP":"video","categoryS":"tv_shows","magnet":"?xt=urn:btih:10992ec2d8f49caff5cf81ba9a3be455f82132ee&amp;dn=%5BShepardTDS%5D+Air+Dual+Audio+%5B720p+8-bit+x265+HEVC%5D+1-13%2BSpecials&amp;tr=udp%3A%2F%2Ftracker.leechers-paradise.org%3A6969&amp;tr=udp%3A%2F%2Fzer0day.ch%3A1337&amp;tr=udp%3A%2F%2Fopen.demonii.com%3A1337&amp;tr=udp%3A%2F%2Ftracker.coppersurfer.tk%3A6969&amp;tr=udp%3A%2F%2Fexodus.desync.com%3A6969","seeders":0,"leechers":1,"uploader":"ShepardTDS","files":18,"time":1458555635,"description":"&lt;a href=&quot;http://extraimago.com/image/a76X&quot;&gt;&lt;img src=&quot;http://extraimago.com/images/2016/03/21/91uY6HOdy7L._SL1500_.md.jpg&quot; alt=&quot;91uY6HOdy7L._SL1500_.jpg&quot; border=&quot;0&quot; /&gt;&lt;/a&gt;\r\n\r\nConstant Quality encoding.\r\nVariable Bit rates\r\nOP included\r\nBlu-Ray Source\r\nEpisode 13 is DVD 480p\r\n\r\n&lt;a href=&quot;http://extraimago.com/image/a76g&quot;&gt;&lt;img src=&quot;http://extraimago.com/images/2016/03/21/sample1.th.jpg&quot; alt=&quot;sample1.jpg&quot; border=&quot;0&quot; /&gt;&lt;/a&gt;\r\n\r\n&lt;a href=&quot;http://extraimago.com/image/a765&quot;&gt;&lt;img src=&quot;http://extraimago.com/images/2016/03/21/sample2.th.jpg&quot; alt=&quot;sample2.jpg&quot; border=&quot;0&quot; /&gt;&lt;/a&gt;\r\n\r\nGeneral\r\n\r\nFormat : Matroska\r\nFile size : 218 MiB-162 MiB\r\nDuration : 24mn 13s\r\nOverall bit rate : 1 256 Kbps-935 Kbps\r\nEncoded date : UTC 2016-03-20 08:52:56\r\nWriting application : mkvmerge v8.5.2 ('Crosses') 32bit\r\nWriting library : libebml v1.3.3 + libmatroska v1.4.4\r\n\r\nVideo\r\nID : 1\r\nFormat : V_MPEGH/ISO/HEVC\r\nCodec ID : V_MPEGH/ISO/HEVC\r\nDuration : 24mn 13s\r\nBit rate : 847 Kbps-532 Kbps\r\nWidth : 1 280 pixels\r\nHeight : 720 pixels\r\nDisplay aspect ratio : 16:9\r\nFrame rate : 23.976 fps\r\nBits/(Pixel*Frame) : 0.038\r\nStream size : 147 MiB (67%)\r\n\r\nAudio #1\r\nID : 2\r\nFormat : AC-3\r\nFormat/Info : Audio Coding 3\r\nMode extension : CM (complete main)\r\nCodec ID : A_AC3\r\nDuration : 24mn 13s\r\nBit rate mode : Constant\r\nBit rate : 192 Kbps\r\nChannel(s) : 2 channels\r\nChannel positions : Front: L R\r\nSampling rate : 48.0 KHz\r\nBit depth : 16 bits\r\nCompression mode : Lossy\r\nStream size : 33.3 MiB (15%)\r\nLanguage : English\r\n\r\nAudio #2\r\nID : 3\r\nFormat : AC-3\r\nFormat/Info : Audio Coding 3\r\nMode extension : CM (complete main)\r\nCodec ID : A_AC3\r\nDuration : 24mn 13s\r\nBit rate mode : Constant\r\nBit rate : 192 Kbps\r\nChannel(s) : 2 channels\r\nChannel positions : Front: L R\r\nSampling rate : 48.0 KHz\r\nBit depth : 16 bits\r\nCompression mode : Lossy\r\nStream size : 33.3 MiB (15%)\r\nLanguage : Japanese\r\n\r\nText\r\nID : 4\r\nFormat : ASS\r\nCodec ID : S_TEXT/ASS\r\nCodec ID/Info : Advanced Sub Station Alpha\r\nCompression mode : Lossless\r\nLanguage : Japanese","torrent":{"xt":"urn:btih:10992ec2d8f49caff5cf81ba9a3be455f82132ee","amp;dn":"%5BShepardTDS%5D+Air+Dual+Audio+%5B720p+8-bit+x265+HEVC%5D+1-13%2BSpecials","amp;tr":["udp%3A%2F%2Ftracker.leechers-paradise.org%3A6969","udp%3A%2F%2Fzer0day.ch%3A1337","udp%3A%2F%2Fopen.demonii.com%3A1337","udp%3A%2F%2Ftracker.coppersurfer.tk%3A6969","udp%3A%2F%2Fexodus.desync.com%3A6969"],"infoHash":"10992ec2d8f49caff5cf81ba9a3be455f82132ee","infoHashBuffer":{"type":"Buffer","data":[16,153,46,194,216,244,156,175,245,207,129,186,154,59,228,85,248,33,50,238]},"announce":[],"urlList":[]}}